<svg xmlns="http://www.w3.org/2000/svg" width="1024" height="1024" viewBox="0 0 256 256" version="1.1" class="injected-svg" data-src="https://storage.googleapis.com/illustroke-c1d67.appspot.com/LimEtYMXLvgy71UV6DAA4fKJFFt1/2n01pm4gtmf26xw3sb0a0g-2.svg?GoogleAccessId=illustroke-c1d67%40appspot.gserviceaccount.com&amp;Expires=16447017600&amp;Signature=wIGV0roW3b2O8tDqSH%2B2sOEqHopaB9wAtT%2B6uohkwbBzZ0D0EX%2Bvo4JV%2FNBTlHVOyt%2Bn43%2BgP2ZQRcqBrKaX01Zquzx%2BdIwlhsH%2FFUOD4A5j%2BT22tjYVdMwX1qUPXr9%2FMwgZ02JBUk9FP7bcUUIaFsi2B%2FTMNgAu2iUGbgQLN%2BhiZyirh3adiZo8Ej1Fkiz0nOgN%2FFdIsKFtePA4ejiKuLdEYDys4SCc%2Fw3A7S1n%2FGwKeYF9JKBusyMT91U3101M8YdIKVaJ9RyZmyNR2soTbPIM%2BGF91Ye538g12Rf5eukhNoSwjvxJ1qb%2FmI5SjZKXFat0Ja0fSe%2FrD%2Bk%2FHr%2BloA%3D%3D" xmlns:xlink="http://www.w3.org/1999/xlink"><rect width="1024" height="1024" fill="white"/>
	<path d="M 75.595 78.500 C 73.134 80.170, 70.515 81.007, 67.706 81.022 C 63.237 81.045, 55 84.218, 55 85.916 C 55 88.193, 51.274 88.983, 48.071 87.386 C 45.097 85.902, 44.576 85.957, 38.453 88.408 C 31.367 91.245, 28.890 91.547, 25.886 89.939 C 24.293 89.086, 23.029 89.430, 19.453 91.689 C 17.006 93.235, 15.003 95.063, 15.002 95.750 C 14.999 97.590, 15.711 97.326, 19.960 93.912 C 23.286 91.239, 24.099 90.982, 26.007 92.004 C 28.644 93.415, 33.165 92.699, 39.608 89.849 C 44.062 87.879, 44.477 87.857, 47.748 89.417 C 50.659 90.805, 50.999 91.296, 49.936 92.577 C 45.565 97.844, 34.583 101.001, 29.821 98.358 C 27.083 96.840, 26 96.690, 26 97.832 C 26 99.361, 32.804 100.776, 37.680 100.260 C 43.031 99.695, 46.223 97.667, 53 90.530 C 58.188 85.066, 62.285 83, 67.933 83 C 70.625 83, 73.422 82.054, 76.499 80.103 C 79.220 78.377, 81.865 77.413, 83.038 77.720 C 85.468 78.356, 93.958 85.902, 92.307 85.959 C 90.231 86.030, 84 81.862, 84 80.401 C 84 79.631, 83.502 79, 82.893 79 C 82.284 79, 82.050 79.689, 82.373 80.530 C 82.766 81.553, 82.054 82.459, 80.230 83.260 C 78.729 83.920, 77.169 84.918, 76.765 85.480 C 76.323 86.094, 76.012 85.903, 75.985 85 C 75.949 83.831, 75.711 83.891, 74.905 85.276 C 74.055 86.736, 73.038 86.941, 69.185 86.430 C 63.785 85.714, 63.473 85.942, 53.500 97.867 C 48.443 103.914, 47.107 104.970, 45 104.585 C 42.155 104.064, 35.463 105.727, 32.527 107.685 C 31.443 108.408, 29.557 109, 28.337 109 C 25.254 109, 24.742 110.335, 27.063 112.322 C 29.541 114.444, 31.399 114.440, 34.655 112.306 C 36.368 111.184, 38.804 110.708, 41.870 110.895 C 47.029 111.209, 48.082 111.713, 46.114 112.929 C 45.125 113.541, 45.086 113.935, 45.961 114.476 C 46.673 114.916, 47.340 114.416, 47.657 113.202 C 48.060 111.661, 48.974 111.226, 51.648 111.301 C 54.617 111.386, 55.046 111.695, 54.627 113.450 C 54.357 114.577, 53.828 117.200, 53.452 119.277 C 53.075 121.355, 51.973 123.480, 51.001 123.999 C 50.030 124.519, 48.953 125.744, 48.607 126.722 C 48.262 127.700, 49.508 126.874, 51.377 124.888 C 53.964 122.137, 54.945 120.038, 55.488 116.084 C 56.050 112.002, 56.555 110.964, 57.851 111.227 C 59.588 111.580, 59.832 113.690, 58.666 118.250 C 58.240 119.911, 58.365 121, 58.981 121 C 59.541 121, 60.003 119.987, 60.006 118.750 C 60.010 117.513, 60.685 115.211, 61.506 113.636 C 63.181 110.424, 63.444 107.393, 62.119 106.574 C 61.635 106.274, 61.022 104.898, 60.758 103.515 C 60.338 101.316, 60.627 101, 63.057 101 C 67.775 101, 69 100.051, 69 96.393 C 69 93.943, 69.447 93, 70.607 93 C 71.665 93, 72.006 93.543, 71.604 94.590 C 70.611 97.178, 71.715 97.784, 76 97 C 78.224 96.593, 80.275 96.636, 80.558 97.094 C 81.209 98.148, 71.843 105.021, 70.710 104.321 C 69.507 103.577, 63 104.930, 63 105.922 C 63 107.223, 72.216 105.873, 75 104.163 C 76.375 103.319, 78.239 101.730, 79.142 100.631 C 80.333 99.184, 82.260 98.549, 86.142 98.324 C 90.678 98.062, 91.883 97.555, 94 95.016 C 95.410 93.324, 97.907 91.743, 99.728 91.388 C 101.503 91.042, 103.470 90.138, 104.100 89.379 C 104.730 88.621, 105.769 88, 106.409 88 C 107.049 88, 109.525 86.285, 111.912 84.188 C 115.915 80.671, 116.147 80.208, 114.900 78.211 L 113.548 76.046 110.354 79.142 C 107.527 81.881, 106.719 82.159, 103.330 81.556 C 101.223 81.182, 97.661 80.725, 95.414 80.541 C 93.166 80.358, 89.471 79.261, 87.203 78.104 C 81.889 75.392, 80.084 75.454, 75.595 78.500 M 110.500 80.531 C 108.850 81.883, 106.375 82.999, 105 83.010 C 103.210 83.025, 102.887 83.276, 103.861 83.893 C 105.736 85.081, 108.483 84.208, 111.410 81.496 C 112.767 80.238, 114.201 79.500, 114.599 79.855 C 114.996 80.210, 114.997 79.938, 114.601 79.250 C 113.716 77.712, 114.077 77.599, 110.500 80.531 M 94.857 81.669 C 93.489 82.032, 93.392 82.579, 94.279 84.929 C 95.235 87.460, 95.820 87.754, 99.923 87.758 C 104.292 87.763, 104.348 87.728, 101.157 86.989 C 99.319 86.563, 97.294 85.688, 96.657 85.044 C 95.774 84.151, 96.166 84.126, 98.315 84.937 C 102.491 86.514, 103.239 86.239, 100.964 83.964 C 99.843 82.843, 98.424 82.238, 97.809 82.618 C 97.129 83.038, 96.971 82.856, 97.405 82.155 C 98.133 80.975, 97.745 80.901, 94.857 81.669 M 81 84.728 C 80.175 85.041, 78.228 86.356, 76.673 87.649 C 74.926 89.102, 72.548 90, 70.446 90 C 66.469 90, 63.410 93.566, 64.484 96.951 C 65.678 100.710, 68 99.369, 68 94.921 L 68 90.841 71.250 91.640 C 76.769 92.996, 81.200 92.492, 92 89.281 C 92.955 88.997, 91.864 87.972, 89 86.463 C 84.286 83.978, 83.451 83.796, 81 84.728 M 114.150 87.599 C 112.308 89.421, 108.708 91.688, 106.150 92.638 C 103.593 93.587, 99.598 96.083, 97.272 98.182 C 92.642 102.364, 92.341 102.460, 88.487 100.995 C 86.146 100.105, 85.183 100.509, 80.058 104.536 C 76.755 107.131, 72.775 109.325, 70.785 109.647 C 67.711 110.146, 67.288 110.576, 67.211 113.277 C 67.163 114.962, 66.278 117.502, 65.245 118.920 C 62.508 122.676, 61.771 125.025, 63.543 124.345 C 64.759 123.878, 64.738 124.395, 63.405 127.646 C 61.487 132.326, 59.564 134.467, 58.096 133.559 C 56.260 132.425, 56.870 128.929, 59.250 126.944 C 60.487 125.911, 60.975 125.052, 60.334 125.033 C 59.693 125.015, 57.746 126.795, 56.009 128.989 C 52.821 133.014, 49.814 134.810, 42.500 137.056 C 40.300 137.732, 37.600 138.951, 36.500 139.765 C 35.400 140.580, 35.175 141.029, 36 140.764 C 52.351 135.513, 53.998 134.815, 54.033 133.114 C 54.058 131.895, 54.570 132.105, 56.124 133.973 L 58.182 136.447 55.535 138.723 C 54.080 139.975, 51.868 141, 50.622 141 C 47.973 141, 37 146.711, 37 148.090 C 37 148.606, 39.687 147.672, 42.971 146.014 C 46.256 144.356, 50.008 143, 51.309 143 C 52.856 143, 55.173 141.357, 58.007 138.250 C 60.390 135.637, 63.726 132.010, 65.420 130.189 C 67.742 127.692, 68.014 127.063, 66.525 127.632 C 64.682 128.336, 64.699 128.198, 66.790 125.540 C 68.021 123.975, 68.772 122.439, 68.460 122.126 C 68.147 121.814, 67.473 122.220, 66.961 123.029 C 66.211 124.214, 66.028 124.100, 66.015 122.441 C 66.007 121.309, 66.661 119.509, 67.468 118.441 C 68.276 117.374, 68.951 115.675, 68.968 114.667 C 68.986 113.648, 69.555 113.023, 70.250 113.260 C 70.944 113.497, 71.500 115.312, 71.500 117.344 C 71.500 121.266, 72.921 122.501, 73.118 118.750 C 73.238 116.479, 73.159 115.924, 72.261 112.750 C 71.938 111.605, 72.321 111, 73.372 111 C 74.942 111, 76.036 110.255, 82.414 104.847 C 85.118 102.555, 86.183 102.266, 90.251 102.725 C 94.561 103.211, 95.207 102.990, 97.899 100.108 C 99.516 98.378, 103.237 95.894, 106.169 94.590 C 109.101 93.285, 113.249 90.819, 115.388 89.109 C 117.526 87.399, 119.888 86, 120.638 86 C 121.387 86, 122 85.606, 122 85.125 C 122 83.052, 117.229 84.556, 114.150 87.599 M 63.791 88.820 C 61.461 89.746, 56.663 96.388, 58.001 96.834 C 59.773 97.424, 62 94.910, 62 92.319 C 62 90.978, 62.342 90.094, 62.761 90.352 C 63.180 90.611, 64.391 90.188, 65.452 89.411 C 67.471 87.935, 66.704 87.662, 63.791 88.820 M 89 92.174 C 87.075 92.708, 83.700 93.463, 81.500 93.852 L 77.500 94.559 80.932 95.791 C 86.427 97.763, 93.810 95.475, 93.968 91.750 C 94.006 90.865, 93.603 90.899, 89 92.174 M 119.733 95.383 C 116.062 97.794, 111.502 100.058, 109.600 100.415 C 107.697 100.772, 103.971 102.885, 101.320 105.109 C 96.771 108.927, 96.212 109.126, 91.375 108.662 C 86.664 108.210, 86.085 108.394, 84.198 110.945 C 83.060 112.485, 80.771 113.996, 79.057 114.339 C 75.834 114.983, 74 117.917, 74 122.430 C 74 123.695, 73.049 125.940, 71.886 127.418 C 70.723 128.896, 70.073 130.406, 70.440 130.774 C 70.808 131.141, 71.527 130.780, 72.039 129.971 C 72.551 129.162, 72.976 128.912, 72.985 129.416 C 72.993 129.920, 72.350 131.045, 71.555 131.916 C 64.470 139.683, 62 143.042, 62 144.911 C 62 147.774, 59.453 152.750, 56.068 156.500 C 54.579 158.150, 52.594 160.738, 51.657 162.250 C 50.236 164.544, 50.195 165, 51.410 165 C 52.210 165, 53.171 163.988, 53.545 162.750 C 53.919 161.512, 55.253 159.375, 56.510 158 C 59.948 154.240, 62.992 148.769, 62.996 146.342 C 63.001 143.737, 71.717 132.739, 73.347 133.282 C 75.538 134.011, 75.153 137.116, 72.082 143.483 C 70.387 146.998, 69 150.976, 69 152.323 C 69 153.886, 67.190 156.701, 64 160.098 C 58.453 166.006, 57.185 168.633, 59.048 170.351 C 60.017 171.244, 60.153 171.099, 59.659 169.698 C 59.278 168.620, 59.423 168.143, 60.019 168.511 C 60.566 168.850, 61.293 168.401, 61.633 167.513 C 61.974 166.626, 64.587 164.407, 67.440 162.581 C 71.628 159.903, 72.979 158.322, 74.451 154.381 C 75.453 151.697, 76.833 148.825, 77.516 148 C 78.200 147.175, 79.524 144.991, 80.458 143.147 C 82.582 138.957, 81.327 135.215, 76.926 132.616 C 74.221 131.017, 73.999 130.501, 74.582 127.175 C 76.426 116.655, 76.431 116.645, 79.720 115.793 C 81.455 115.343, 83.786 113.817, 84.900 112.400 C 86.575 110.271, 87.452 109.940, 89.963 110.492 C 94.482 111.484, 98.038 110.333, 102.500 106.434 C 104.700 104.512, 107.625 102.691, 109 102.388 C 113.480 101.401, 117.214 99.691, 119.994 97.352 C 121.494 96.089, 123.909 94.605, 125.361 94.053 C 127.784 93.132, 129.070 91, 127.203 91 C 126.765 91, 123.403 92.972, 119.733 95.383 M 57.568 98.650 C 55.406 99.430, 52.188 101.559, 50.418 103.382 C 47.707 106.173, 46.511 106.684, 42.849 106.620 C 38.232 106.539, 27.120 111.191, 30.398 111.833 C 31.333 112.016, 33.186 111.453, 34.516 110.581 C 36.056 109.572, 38.732 109.075, 41.885 109.212 C 46.522 109.414, 47.152 109.132, 51.831 104.755 C 54.579 102.184, 57.991 99.789, 59.414 99.432 C 60.836 99.075, 62 98.382, 62 97.892 C 62 97.401, 61.888 97.052, 61.750 97.117 C 61.612 97.181, 59.731 97.871, 57.568 98.650 M 18.861 101.967 C 17.562 103.048, 17.011 103.948, 17.636 103.967 C 19.472 104.021, 24.029 101.362, 23.318 100.652 C 22.274 99.608, 21.373 99.874, 18.861 101.967 M 57.405 101.765 C 56.802 102.169, 56.043 104.188, 55.718 106.250 C 55.230 109.339, 55.423 109.997, 56.813 109.985 C 60.240 109.954, 61.016 108.640, 59.929 104.706 C 59.366 102.668, 58.815 101.007, 58.703 101.015 C 58.591 101.024, 58.007 101.361, 57.405 101.765 M 51.667 107.167 C 49.654 109.362, 50.041 110.582, 52.457 109.655 C 53.306 109.329, 54 108.149, 54 107.031 C 54 104.618, 54.003 104.618, 51.667 107.167 M 45 117.059 C 45 117.641, 45.450 117.840, 46 117.500 C 46.550 117.160, 47 116.684, 47 116.441 C 47 116.198, 46.550 116, 46 116 C 45.450 116, 45 116.477, 45 117.059 M 176.079 117.405 C 175.347 118.287, 175.022 121.732, 175.206 126.655 L 175.500 134.500 180.639 134.798 C 185.203 135.063, 186.015 134.796, 187.889 132.414 C 189.050 130.938, 190 128.732, 190 127.511 C 190 124.402, 185.633 120, 182.548 120 C 180.667 120, 180 119.477, 180 118 C 180 115.689, 177.782 115.353, 176.079 117.405 M 159.250 120.964 C 158.563 122.069, 158 125.710, 158 129.056 C 158 134.792, 158.128 135.121, 160.250 134.820 C 161.800 134.599, 162.587 133.723, 162.780 132 C 163.368 126.745, 164.070 125.113, 166.002 124.499 C 167.964 123.877, 168.725 121.545, 167.250 120.677 C 166.838 120.434, 165.150 119.947, 163.500 119.595 C 161.146 119.093, 160.231 119.388, 159.250 120.964 M 100 121.531 C 100 122.374, 100.675 123.322, 101.500 123.638 C 103.408 124.371, 103.423 127.059, 101.532 129.559 C 98.483 133.589, 99.512 135, 105.500 135 C 109.866 135, 111 134.671, 111 133.406 C 111 132.530, 110.100 131.577, 109 131.290 C 106.520 130.641, 106.523 130.508, 109.097 126.343 C 112.084 121.510, 111.116 120, 105.031 120 C 101.180 120, 100 120.359, 100 121.531 M 119.049 122.448 C 116.019 125.673, 116.120 129.574, 119.314 132.769 C 123.290 136.745, 131 135.741, 131 131.247 C 131 130.095, 130.210 129.866, 127.664 130.280 C 125.829 130.577, 123.692 130.418, 122.914 129.926 C 121.976 129.332, 123.269 129.025, 126.750 129.015 C 131.637 129.001, 132 128.832, 132 126.573 C 132 123.552, 127.698 120, 124.039 120 C 122.478 120, 120.384 121.027, 119.049 122.448 M 140.229 120.669 C 138.072 121.537, 135.911 126.796, 136.593 129.515 C 138.646 137.694, 152.333 136.374, 152.333 127.998 C 152.333 122.445, 145.739 118.453, 140.229 120.669 M 196.635 122.073 C 191.684 125.967, 193.996 133.403, 200.799 135.468 C 203.947 136.424, 208.365 133.505, 207.688 130.916 C 207.413 129.863, 207.596 128.750, 208.094 128.442 C 209.728 127.432, 209.044 124.390, 206.686 122.174 C 203.773 119.438, 200.033 119.400, 196.635 122.073 M 216.635 122.073 C 211.584 126.045, 214.134 133.769, 221.063 135.487 C 222.835 135.927, 224.369 135.522, 226.031 134.176 C 228.086 132.512, 228.242 131.997, 227.105 130.626 C 225.983 129.275, 226.027 128.927, 227.387 128.405 C 229.558 127.572, 229.417 125.800, 226.927 122.635 C 224.378 119.394, 220.322 119.172, 216.635 122.073 M 46 124.059 C 46 124.641, 46.450 124.840, 47 124.500 C 47.550 124.160, 48 123.684, 48 123.441 C 48 123.198, 47.550 123, 47 123 C 46.450 123, 46 123.477, 46 124.059 M 124 125 C 124 125.550, 124.702 126, 125.559 126 C 126.416 126, 126.840 125.550, 126.500 125 C 126.160 124.450, 125.459 124, 124.941 124 C 124.423 124, 124 124.450, 124 125 M 144.037 125.963 C 141.837 128.163, 141.722 130.074, 143.749 130.750 C 145.460 131.320, 148.535 126.135, 147.249 124.849 C 146.517 124.117, 145.546 124.454, 144.037 125.963 M 201 125 C 201 125.550, 201.477 126, 202.059 126 C 202.641 126, 202.840 125.550, 202.500 125 C 202.160 124.450, 201.684 124, 201.441 124 C 201.198 124, 201 124.450, 201 125 M 180.667 125.667 C 179.379 126.955, 179.984 131, 181.465 131 C 182.922 131, 185 128.099, 185 126.066 C 185 124.899, 181.735 124.598, 180.667 125.667 M 38.261 131.360 C 31.274 133.425, 26.873 136.207, 28.313 137.647 C 28.695 138.029, 30.019 137.426, 31.254 136.308 C 32.489 135.190, 36.313 133.670, 39.750 132.931 C 43.504 132.124, 46 131.071, 46 130.294 C 46 129.582, 45.888 129.049, 45.750 129.110 C 45.612 129.170, 42.242 130.183, 38.261 131.360 M 200 130 C 200 130.550, 201.098 131, 202.441 131 C 203.784 131, 205.160 130.550, 205.500 130 C 205.861 129.417, 204.844 129, 203.059 129 C 201.377 129, 200 129.450, 200 130 M 220.500 131 C 220.840 131.550, 221.740 132, 222.500 132 C 223.260 132, 224.160 131.550, 224.500 131 C 224.852 130.431, 223.991 130, 222.500 130 C 221.009 130, 220.148 130.431, 220.500 131 M 75.988 137.250 C 75.981 138.488, 74.902 141.379, 73.589 143.675 C 72.275 145.971, 70.886 149.713, 70.502 151.991 C 70.033 154.767, 68.680 157.253, 66.398 159.535 C 64.466 161.467, 63.752 162.672, 64.747 162.321 C 68.026 161.163, 71.210 157.512, 73.575 152.199 C 74.873 149.283, 76.850 145.735, 77.968 144.314 C 80.249 141.413, 80.600 138, 78.800 136.200 C 76.985 134.385, 76.001 134.752, 75.988 137.250 M 144.079 145.583 C 144.127 146.748, 144.364 146.985, 144.683 146.188 C 144.972 145.466, 144.936 144.603, 144.604 144.271 C 144.272 143.939, 144.036 144.529, 144.079 145.583 M 154 144.819 C 154 146.476, 156.072 147.348, 157.095 146.121 C 157.602 145.514, 157.717 145.234, 157.350 145.500 C 156.984 145.765, 156.080 145.481, 155.342 144.869 C 154.426 144.108, 154 144.092, 154 144.819 M 148 145.833 C 148 147.241, 149.126 147.889, 150.592 147.326 C 151.360 147.032, 151.740 146.388, 151.435 145.895 C 150.737 144.766, 148 144.717, 148 145.833 M 166.079 146.583 C 166.127 147.748, 166.364 147.985, 166.683 147.188 C 166.972 146.466, 166.936 145.603, 166.604 145.271 C 166.272 144.939, 166.036 145.529, 166.079 146.583 M 168 146.059 C 168 146.641, 168.450 146.840, 169 146.500 C 169.550 146.160, 170 145.684, 170 145.441 C 170 145.198, 169.550 145, 169 145 C 168.450 145, 168 145.477, 168 146.059 M 189.333 146.456 C 189.333 147.257, 189.716 147.676, 190.183 147.387 C 190.650 147.098, 190.774 146.443, 190.457 145.931 C 189.649 144.623, 189.333 144.770, 189.333 146.456" stroke="none" fill="#000000" fill-rule="evenodd" fill-opacity="1"/>
</svg>